<svg aria-hidden="true" style="position: absolute; width: 0; height: 0; overflow: hidden;" version="1.1" xmlns="http://www.w3.org/2000/svg" xmlns:xlink="http://www.w3.org/1999/xlink">
<defs>
<symbol id="icon-edit" viewBox="0 0 32 32">
<path d="M20.971 12.915l-1.885-1.885-12.419 12.419v1.885h1.885l12.419-12.419zM22.856 11.029l1.885-1.885-1.885-1.885-1.885 1.885 1.885 1.885zM9.656 28h-5.656v-5.657l17.913-17.913c0.241-0.241 0.575-0.39 0.943-0.39s0.701 0.149 0.943 0.39l3.772 3.772c0.241 0.241 0.39 0.575 0.39 0.943s-0.149 0.701-0.39 0.943l-17.913 17.913z"></path>
</symbol>
<symbol id="icon-bolt" viewBox="0 0 24 32">
<path d="M23.319 17.506l-15.944 13.944c-0.431 0.381-0.906 0.55-1.375 0.55-0.412 0-0.824-0.126-1.176-0.382-0.756-0.549-1.031-1.547-0.662-2.406l4.806-11.212h-6.968c-0.834 0-1.58-0.517-1.873-1.297s-0.070-1.659 0.557-2.208l15.944-13.944c0.703-0.618 1.738-0.661 2.492-0.112 0.756 0.549 1.031 1.548 0.662 2.406l-4.805 11.213 6.969-0c0.834 0 1.58 0.517 1.873 1.297 0.344 0.721 0.125 1.602-0.5 2.152z"></path>
</symbol>
<symbol id="icon-refresh" viewBox="0 0 32 32">
<path d="M7.284 5.911c2.316-2.015 5.363-3.244 8.697-3.244 0.007 0 0.013 0 0.020 0h-0.001c7.364 0 13.333 5.969 13.333 13.333 0 2.848-0.893 5.488-2.413 7.653l-4.253-7.653h4c0-0 0-0.001 0-0.001 0-5.891-4.776-10.667-10.667-10.667-2.869 0-5.473 1.133-7.39 2.975l0.004-0.003-1.329-2.393zM24.716 26.089c-2.316 2.015-5.363 3.244-8.697 3.244-0.006 0-0.013 0-0.020 0h0.001c-7.364 0-13.333-5.969-13.333-13.333 0-2.848 0.893-5.488 2.413-7.653l4.253 7.653h-4c0 0 0 0.001 0 0.001 0 5.891 4.776 10.667 10.667 10.667 2.869 0 5.473-1.133 7.39-2.975l-0.004 0.003 1.329 2.393z"></path>
</symbol>
<symbol id="icon-upload" viewBox="0 0 32 32">
<path d="M1.333 19.333c0-0.001 0-0.003 0-0.005 0-3.088 1.616-5.799 4.050-7.333l0.036-0.021c0.696-5.279 5.168-9.311 10.581-9.311s9.885 4.032 10.575 9.257l0.006 0.054c2.471 1.555 4.088 4.268 4.088 7.359 0 4.553-3.511 8.286-7.973 8.639l-0.030 0.002-13.333 0.025c-4.475-0.365-8-4.104-8-8.667zM22.464 25.316c3.11-0.246 5.54-2.831 5.54-5.982 0-2.141-1.121-4.020-2.808-5.082l-0.025-0.015-1.076-0.671-0.16-1.256c-0.526-3.956-3.878-6.976-7.935-6.976s-7.409 3.020-7.931 6.935l-0.004 0.041-0.16 1.256-1.073 0.671c-1.712 1.076-2.834 2.955-2.834 5.096 0 3.151 2.43 5.735 5.518 5.981l0.021 0.001 0.231 0.017h12.467l0.231-0.017zM17.333 17.333v5.333h-2.667v-5.333h-4l5.333-6.667 5.333 6.667h-4z"></path>
</symbol>
<symbol id="icon-delete" viewBox="0 0 32 32">
<path d="M9.333 5.333v-2.667h13.333v2.667h6.667v2.667h-2.667v20c0 0.736-0.597 1.333-1.333 1.333v0h-18.667c-0.736 0-1.333-0.597-1.333-1.333v0-20h-2.667v-2.667h6.667zM8 8v18.667h16v-18.667h-16zM12 12h2.667v10.667h-2.667v-10.667zM17.333 12h2.667v10.667h-2.667v-10.667z"></path>
</symbol>
<symbol id="icon-messenger" viewBox="0 0 32 32">
<path d="M10.352 25.633c0.787-0.347 1.667-0.412 2.491-0.185 1.027 0.28 2.087 0.421 3.157 0.419 6.113 0 10.667-4.383 10.667-10.267s-4.553-10.267-10.667-10.267-10.667 4.383-10.667 10.267c0 3.027 1.195 5.696 3.288 7.568 0.744 0.661 1.221 1.609 1.256 2.669l0 0.006 0.475-0.209zM16 2.667c7.512 0 13.333 5.503 13.333 12.933s-5.821 12.933-13.333 12.933c-0.011 0-0.024 0-0.037 0-1.36 0-2.676-0.187-3.925-0.537l0.102 0.024c-0.085-0.024-0.182-0.038-0.283-0.038-0.155 0-0.303 0.033-0.436 0.093l0.007-0.003-2.645 1.168c-0.127 0.058-0.275 0.091-0.431 0.091-0.577 0-1.048-0.459-1.066-1.032l-0-0.002-0.073-2.373c-0.010-0.303-0.146-0.572-0.356-0.759l-0.001-0.001c-2.595-2.319-4.188-5.676-4.188-9.565 0-7.431 5.823-12.933 13.333-12.933zM7.993 19.383l3.916-6.213c0.36-0.565 0.983-0.934 1.692-0.934 0.453 0 0.871 0.151 1.206 0.404l-0.005-0.004 3.115 2.333c0.132 0.101 0.3 0.162 0.482 0.162s0.35-0.061 0.484-0.163l-0.002 0.001 4.207-3.195c0.561-0.425 1.295 0.247 0.919 0.844l-3.916 6.213c-0.36 0.565-0.983 0.934-1.692 0.934-0.453 0-0.871-0.151-1.206-0.404l0.005 0.004-3.115-2.333c-0.132-0.101-0.3-0.162-0.482-0.162s-0.35 0.061-0.484 0.163l0.002-0.001-4.207 3.193c-0.561 0.425-1.295-0.247-0.919-0.844z"></path>
</symbol>
<symbol id="icon-search" viewBox="0 0 32 32">
<path d="M24.041 22.156l5.711 5.709-1.887 1.887-5.709-5.711c-2.027 1.636-4.634 2.625-7.472 2.625-0.006 0-0.012 0-0.018 0h0.001c-6.624 0-12-5.376-12-12s5.376-12 12-12 12 5.376 12 12c0 0.005 0 0.011 0 0.017 0 2.838-0.99 5.446-2.643 7.495l0.018-0.023zM21.367 21.167c1.629-1.674 2.633-3.962 2.633-6.485 0-0.005 0-0.010 0-0.015v0.001c0-5.157-4.177-9.333-9.333-9.333-5.157 0-9.333 4.176-9.333 9.333 0 5.156 4.176 9.333 9.333 9.333 0.004 0 0.009 0 0.015 0 2.523 0 4.812-1.005 6.487-2.635l-0.002 0.002 0.2-0.2z"></path>
</symbol>
<symbol id="icon-bell" viewBox="0 0 32 32">
<path d="M24 13.333c0-4.418-3.582-8-8-8s-8 3.582-8 8v0 10.667h16v-10.667zM26.667 24.889l0.533 0.711c0.083 0.11 0.133 0.249 0.133 0.4 0 0.368-0.298 0.667-0.667 0.667v0h-21.333c-0.368 0-0.667-0.298-0.667-0.667 0-0.151 0.050-0.29 0.135-0.402l-0.001 0.002 0.533-0.711v-11.556c0-5.891 4.776-10.667 10.667-10.667s10.667 4.776 10.667 10.667v0 11.556zM12.667 28h6.667c0 1.841-1.492 3.333-3.333 3.333s-3.333-1.492-3.333-3.333v0z"></path>
</symbol>
<symbol id="icon-status" viewBox="0 0 32 32">
<path d="M16 29.333c-7.364 0-13.333-5.969-13.333-13.333 0-5.971 3.924-11.024 9.333-12.723v2.832c-3.937 1.63-6.656 5.441-6.656 9.887 0 5.888 4.769 10.662 10.655 10.671h0.001c4.45-0 8.264-2.724 9.865-6.596l0.026-0.071h2.832c-1.699 5.409-6.752 9.333-12.723 9.333zM29.267 17.333h-14.6v-14.6c0.439-0.044 0.884-0.067 1.333-0.067 7.364 0 13.333 5.969 13.333 13.333 0 0.449-0.023 0.895-0.067 1.333zM17.333 5.416v9.251h9.251c-0.628-4.835-4.415-8.623-9.197-9.245l-0.054-0.006z"></path>
</symbol>
<symbol id="icon-category" viewBox="0 0 32 32">
<path d="M10.44 26.667c-0.566 1.567-2.041 2.667-3.772 2.667-2.21 0-4.001-1.791-4.001-4.001 0-1.732 1.1-3.206 2.639-3.763l0.028-0.009v-11.12c-1.567-0.566-2.667-2.041-2.667-3.772 0-2.21 1.791-4.001 4.001-4.001 1.732 0 3.206 1.1 3.763 2.639l0.009 0.028h11.12c0.566-1.567 2.041-2.667 3.772-2.667 2.21 0 4.001 1.791 4.001 4.001 0 1.732-1.1 3.206-2.639 3.763l-0.028 0.009v11.12c1.567 0.566 2.667 2.041 2.667 3.772 0 2.21-1.791 4.001-4.001 4.001-1.732 0-3.206-1.1-3.763-2.639l-0.009-0.028h-11.12zM10.44 24h11.12c0.413-1.142 1.298-2.027 2.412-2.431l0.028-0.009v-11.12c-1.142-0.413-2.027-1.298-2.431-2.412l-0.009-0.028h-11.12c-0.413 1.142-1.298 2.027-2.412 2.431l-0.028 0.009v11.12c1.142 0.413 2.027 1.298 2.431 2.412l0.009 0.028zM6.667 8c0.736 0 1.333-0.597 1.333-1.333s-0.597-1.333-1.333-1.333v0c-0.736 0-1.333 0.597-1.333 1.333s0.597 1.333 1.333 1.333v0zM25.333 8c0.736 0 1.333-0.597 1.333-1.333s-0.597-1.333-1.333-1.333v0c-0.736 0-1.333 0.597-1.333 1.333s0.597 1.333 1.333 1.333v0zM25.333 26.667c0.736 0 1.333-0.597 1.333-1.333s-0.597-1.333-1.333-1.333v0c-0.736 0-1.333 0.597-1.333 1.333s0.597 1.333 1.333 1.333v0zM6.667 26.667c0.736 0 1.333-0.597 1.333-1.333s-0.597-1.333-1.333-1.333v0c-0.736 0-1.333 0.597-1.333 1.333s0.597 1.333 1.333 1.333v0z"></path>
</symbol>
<symbol id="icon-radio" viewBox="0 0 32 32">
<path d="M8 4v-2.667h2.667v2.667h17.344c0.731 0 1.323 0.593 1.323 1.324v21.352c-0.005 0.729-0.594 1.318-1.322 1.324h-24.022c-0.731-0.001-1.323-0.593-1.323-1.324v0-21.352c0.005-0.729 0.594-1.318 1.322-1.324h4.011zM5.333 6.667v18.667h21.333v-18.667h-21.333zM12 20c-2.209 0-4-1.791-4-4s1.791-4 4-4v0c2.209 0 4 1.791 4 4s-1.791 4-4 4v0zM18.667 12h5.333v2.667h-5.333v-2.667zM18.667 17.333h5.333v2.667h-5.333v-2.667z"></path>
</symbol>
<symbol id="icon-customer" viewBox="0 0 32 32">
<path d="M5.044 3.768l10.956-2.435 10.956 2.435c0.602 0.137 1.044 0.668 1.044 1.301v0 13.316c-0 2.764-1.402 5.201-3.534 6.638l-0.028 0.018-8.437 5.625-8.437-5.625c-2.16-1.455-3.562-3.891-3.563-6.655v-13.317c0-0.634 0.442-1.164 1.035-1.3l0.009-0.002zM6.667 6.139v12.247c0 1.843 0.935 3.467 2.356 4.425l0.019 0.012 6.959 4.64 6.959-4.64c1.44-0.97 2.374-2.594 2.375-4.436v-12.248l-9.333-2.072-9.333 2.072zM16 14.667c-1.841 0-3.333-1.492-3.333-3.333s1.492-3.333 3.333-3.333v0c1.841 0 3.333 1.492 3.333 3.333s-1.492 3.333-3.333 3.333v0zM10.036 21.333c0.342-3.019 2.882-5.344 5.964-5.344s5.622 2.325 5.961 5.316l0.003 0.027h-11.928z"></path>
</symbol>
<symbol id="icon-code" viewBox="0 0 32 32">
<path d="M32 16l-7.543 7.543-1.885-1.885 5.657-5.657-5.657-5.657 1.885-1.885 7.543 7.543zM3.771 16l5.657 5.657-1.885 1.885-7.543-7.543 7.543-7.543 1.884 1.885-5.656 5.657zM13.051 28h-2.837l8.736-24h2.837l-8.736 24z"></path>
</symbol>
<symbol id="icon-document" viewBox="0 0 32 32">
<path d="M12 2.671v-0.004h14.664c0.736 0 1.336 0.607 1.336 1.323v24.021c-0.001 0.731-0.593 1.323-1.324 1.323h-21.352c-0.732-0.005-1.324-0.6-1.324-1.333 0-0.003 0-0.007 0-0.010v0-17.324l8-7.996zM7.773 10.667h4.227v-4.227l-4.227 4.227zM14.667 5.333v6.667c0 0.736-0.597 1.333-1.333 1.333v0h-6.667v13.333h18.667v-21.333h-10.667z"></path>
</symbol>
<symbol id="icon-ship" viewBox="0 0 32 32">
<path d="M5.333 13.867v-8.533c0-0.736 0.597-1.333 1.333-1.333v0h6.667v-2.667h5.333v2.667h6.667c0.736 0 1.333 0.597 1.333 1.333v0 8.533l1.448 0.435c0.554 0.17 0.949 0.677 0.949 1.277 0 0.115-0.015 0.226-0.042 0.332l0.002-0.009-2.021 8.091c-0.103 0.006-0.223 0.009-0.343 0.009-0.786 0-1.539-0.136-2.239-0.386l0.046 0.015 1.667-7.136-10.133-3.16-10.133 3.16 1.667 7.135c-0.654 0.236-1.409 0.373-2.196 0.373-0.12 0-0.238-0.003-0.356-0.009l0.016 0.001-2.021-8.091c-0.025-0.097-0.040-0.208-0.040-0.323 0-0.599 0.395-1.106 0.94-1.274l0.009-0.002 1.448-0.435zM8 13.067l8-2.4 8 2.4v-6.4h-16v6.4zM5.333 26.667c0.003 0 0.007 0 0.011 0 2.049 0 3.918-0.773 5.33-2.044l-0.007 0.006c1.405 1.264 3.273 2.037 5.322 2.037 0.004 0 0.008 0 0.012 0h-0.001c0.003 0 0.007 0 0.011 0 2.049 0 3.918-0.773 5.33-2.044l-0.007 0.006c1.405 1.264 3.273 2.037 5.322 2.037 0.004 0 0.008 0 0.012 0h2.666v2.667h-2.667c-0.005 0-0.011 0-0.017 0-1.958 0-3.791-0.53-5.366-1.454l0.050 0.027c-1.525 0.897-3.358 1.427-5.316 1.427-0.006 0-0.012 0-0.018 0h0.001c-0.005 0-0.011 0-0.017 0-1.958 0-3.791-0.53-5.366-1.454l0.050 0.027c-1.525 0.897-3.358 1.427-5.316 1.427-0.006 0-0.012 0-0.018 0h-2.666v-2.667h2.667z"></path>
</symbol>
<symbol id="icon-weight" viewBox="0 0 32 32">
<path d="M28 26.667c0 0.736-0.597 1.333-1.333 1.333v0h-21.333c-0.736 0-1.333-0.597-1.333-1.333v0-14.013c0-0 0-0.001 0-0.001 0-0.426 0.2-0.806 0.512-1.050l0.003-0.002 10.667-8.296c0.223-0.175 0.509-0.281 0.819-0.281s0.595 0.106 0.822 0.283l-0.003-0.002 10.667 8.296c0.314 0.246 0.515 0.626 0.515 1.052 0 0 0 0.001 0 0.001v-0 14.013zM25.333 25.333v-12.029l-9.333-7.259-9.333 7.259v12.029h18.667z"></path>
</symbol>
<symbol id="icon-beam" viewBox="0 0 32 32">
<path d="M25.333 14.667v-8h-18.667v8h18.667zM25.333 17.333h-18.667v8h18.667v-8zM28 5.333v21.333c0 0.736-0.597 1.333-1.333 1.333v0h-21.333c-0.736 0-1.333-0.597-1.333-1.333v0-21.333c0-0.736 0.597-1.333 1.333-1.333v0h21.333c0.736 0 1.333 0.597 1.333 1.333v0z"></path>
</symbol>
<symbol id="icon-length" viewBox="0 0 32 32">
<path d="M13.333 4v2.667h-6.667v18.667h18.667v-6.667h2.667v8c0 0.736-0.597 1.333-1.333 1.333v0h-21.333c-0.736 0-1.333-0.597-1.333-1.333v0-21.333c0-0.736 0.597-1.333 1.333-1.333v0h8zM23.448 6.667h-6.115v-2.667h10.667v10.667h-2.667v-6.115l-9.333 9.333-1.885-1.885 9.333-9.333z"></path>
</symbol>
<symbol id="icon-check" viewBox="0 0 32 32">
<path d="M15.469 18.347l1.883 1.883 11.288-11.288 1.885 1.885-13.173 13.173-8.485-8.485 1.885-1.885 4.717 4.716zM15.472 14.576l6.603-6.604 1.88 1.88-6.603 6.604-1.88-1.88zM11.703 22.116l-1.884 1.884-8.485-8.485 1.885-1.885 1.884 1.884-0.001 0.001 6.601 6.601z"></path>
</symbol>
<symbol id="icon-close" viewBox="0 0 32 32">
<path d="M25.333 8.533l-1.867-1.867-7.467 7.467-7.467-7.467-1.867 1.867 7.467 7.467-7.467 7.467 1.867 1.867 7.467-7.467 7.467 7.467 1.867-1.867-7.467-7.467 7.467-7.467z"></path>
</symbol>
<symbol id="icon-arrow-left" viewBox="0 0 32 32">
<path d="M16 14.667h10.667v2.667h-10.667v9.333l-10.667-10.667 10.667-10.667z"></path>
</symbol>

<symbol id="icon-arrow-right" viewBox="0 0 32 32">
<path d="M16 17.333h-10.667v-2.667h10.667v-9.333l10.667 10.667-10.667 10.667z"></path>
</symbol>
<symbol id="icon-chevron-down" viewBox="0 0 32 32">
<path d="M23.429 10.797l1.985 1.985-9.414 9.414-9.414-9.414 1.985-1.985 7.429 7.429z"></path>
</symbol>
<symbol id="icon-chevron-right" viewBox="0 0 32 32">
<path d="M10.797 8.571l1.985-1.985 9.414 9.414-9.414 9.414-1.985-1.985 7.429-7.429z"></path>
</symbol>
<symbol id="icon-chevron-up" viewBox="0 0 32 32">
<path d="M8.571 21.203l-1.985-1.985 9.414-9.414 9.414 9.414-1.985 1.985-7.429-7.429z"></path>
</symbol>
<symbol id="icon-chevron-left" viewBox="0 0 32 32">
<path d="M21.699 23.429l-1.985 1.985-9.414-9.414 9.414-9.414 1.985 1.985-7.429 7.429z"></path>
</symbol>
<symbol id="icon-mark" viewBox="0 0 32 32">
<path d="M13.333 20.229l12.256-12.257 1.887 1.885-14.143 14.143-8.485-8.485 1.885-1.885z"></path>
</symbol>
<symbol id="icon-bridge" viewBox="0 0 32 32">
<path d="M30.819 11.046h-29.638c-0.652 0-1.181 0.529-1.181 1.181s0.529 1.181 1.181 1.181h0.276v6.365c0 0.652 0.529 1.181 1.181 1.181h3.309c0.652 0 1.181-0.529 1.181-1.181 0-1.523 1.239-2.763 2.763-2.763s2.763 1.239 2.763 2.763c0 0.652 0.529 1.181 1.181 1.181h4.329c0.652 0 1.181-0.529 1.181-1.181 0-1.523 1.239-2.763 2.763-2.763s2.763 1.239 2.763 2.763c0 0.652 0.529 1.181 1.181 1.181h3.31c0.652 0 1.181-0.529 1.181-1.181v-6.365h0.276c0.652 0 1.181-0.529 1.181-1.181s-0.529-1.181-1.181-1.181zM28.181 18.592h-1.085c-0.535-2.258-2.568-3.944-4.988-3.944s-4.453 1.685-4.988 3.944h-2.241c-0.535-2.258-2.568-3.944-4.988-3.944s-4.453 1.685-4.988 3.944h-1.085v-5.184h24.361v5.184z"></path>
</symbol>
<symbol id="icon-clock" viewBox="0 0 32 32">
<path d="M16 29.333c-7.364 0-13.333-5.969-13.333-13.333s5.969-13.333 13.333-13.333 13.333 5.969 13.333 13.333-5.969 13.333-13.333 13.333zM16 26.667c5.891 0 10.667-4.776 10.667-10.667s-4.776-10.667-10.667-10.667v0c-5.891 0-10.667 4.776-10.667 10.667s4.776 10.667 10.667 10.667v0zM17.333 16h5.333v2.667h-8v-9.333h2.667v6.667z"></path>
</symbol>
<symbol id="icon-directions" viewBox="0 0 32 32">
<path d="M29.041 18.5l-2.667-3.333c-0.246-0.306-0.621-0.5-1.041-0.5-0 0-0 0-0.001 0h-8v-2.667h8c1.471 0 2.667-1.196 2.667-2.667v-4c0-1.471-1.196-2.667-2.667-2.667h-18.667c-0 0-0 0-0 0-0.42 0-0.794 0.194-1.039 0.497l-0.002 0.003-2.667 3.333c-0.182 0.226-0.292 0.517-0.292 0.833s0.11 0.607 0.294 0.836l-0.002-0.003 2.667 3.333c0.246 0.306 0.621 0.5 1.041 0.5 0 0 0 0 0.001 0h8v2.667h-8c-1.471 0-2.667 1.196-2.667 2.667v4c0 1.471 1.196 2.667 2.667 2.667h8v5.333h2.667v-5.333h8c0 0 0 0 0 0 0.42 0 0.794-0.194 1.039-0.497l0.002-0.003 2.667-3.333c0.182-0.226 0.292-0.517 0.292-0.833s-0.11-0.607-0.294-0.836l0.002 0.003zM5.708 7.333l1.599-2h18.027l0.003 4h-18.029l-1.599-2zM24.693 21.333h-18.027v-4h18.027l1.6 2-1.6 2z"></path>
</symbol>
<symbol id="icon-alert" viewBox="0 0 32 32">
<path d="M17.155 4l12.701 22c0.112 0.191 0.179 0.421 0.179 0.667 0 0.736-0.597 1.333-1.333 1.333h-25.403c-0.736-0-1.333-0.597-1.333-1.333 0-0.245 0.066-0.475 0.182-0.673l-0.003 0.006 12.701-22c0.235-0.401 0.664-0.667 1.155-0.667s0.92 0.265 1.151 0.66l0.003 0.006zM5.608 25.333h20.784l-10.392-18-10.392 18zM14.667 21.333h2.667v2.667h-2.667v-2.667zM14.667 12h2.667v6.667h-2.667v-6.667z"></path>
</symbol>
<symbol id="icon-error" viewBox="0 0 32 32">
<path d="M16 2.667c7.364 0 13.333 5.969 13.333 13.333s-5.969 13.333-13.333 13.333-13.333-5.969-13.333-13.333 5.969-13.333 13.333-13.333zM16 5.333c-5.891 0-10.667 4.776-10.667 10.667s4.776 10.667 10.667 10.667v0c5.891 0 10.667-4.776 10.667-10.667s-4.776-10.667-10.667-10.667v0zM17.333 22.667h-2.667v-2.667h2.667v2.667zM17.333 17.333h-2.667v-8h2.667v8z"></path>
</symbol>
<symbol id="icon-information" viewBox="0 0 32 32">
<path d="M16 29.333c-7.364 0-13.333-5.969-13.333-13.333s5.969-13.333 13.333-13.333 13.333 5.969 13.333 13.333-5.969 13.333-13.333 13.333zM16 26.667c5.891 0 10.667-4.776 10.667-10.667s-4.776-10.667-10.667-10.667v0c-5.891 0-10.667 4.776-10.667 10.667s4.776 10.667 10.667 10.667v0zM14.667 9.333h2.667v2.667h-2.667v-2.667zM14.667 14.667h2.667v8h-2.667v-8z"></path>
</symbol>
<symbol id="icon-hash" viewBox="0 0 32 32">
<path d="M13.6 13.333l-0.533 5.333h5.333l0.533-5.333h-5.333zM13.867 10.667h5.333l0.8-8h2.667l-0.8 8h6.133l-0.267 2.667h-6.133l-0.533 5.333h5.6l-0.267 2.667h-5.6l-0.8 8h-2.667l0.8-8h-5.333l-0.8 8h-2.667l0.8-8h-6.133l0.267-2.667h6.133l0.533-5.333h-5.6l0.267-2.667h5.6l0.8-8h2.667l-0.8 8z"></path>
</symbol>
<symbol id="icon-location" viewBox="0 0 32 32">
<path d="M16 27.867l6.6-6.6c1.689-1.689 2.733-4.022 2.733-6.599 0-5.155-4.179-9.333-9.333-9.333s-9.333 4.179-9.333 9.333c0 2.577 1.045 4.91 2.733 6.599l6.6 6.6zM16 31.637l-8.485-8.485c-2.172-2.172-3.515-5.172-3.515-8.485 0-6.627 5.373-12 12-12s12 5.373 12 12c0 3.314-1.343 6.314-3.515 8.485l-8.485 8.485zM16 17.333c1.473 0 2.667-1.194 2.667-2.667s-1.194-2.667-2.667-2.667v0c-1.473 0-2.667 1.194-2.667 2.667s1.194 2.667 2.667 2.667v0zM16 20c-2.946 0-5.333-2.388-5.333-5.333s2.388-5.333 5.333-5.333v0c2.946 0 5.333 2.388 5.333 5.333s-2.388 5.333-5.333 5.333v0z"></path>
</symbol>
<symbol id="icon-earth" viewBox="0 0 32 32">
<path d="M8.313 8.604c-1.847 1.915-2.985 4.525-2.985 7.401 0 5.891 4.776 10.667 10.667 10.667 1.47 0 2.87-0.297 4.145-0.835l-0.070 0.026c0.153-1-0.183-1.96-0.32-2.296-0.307-0.747-1.317-2.023-3.004-3.792-0.451-0.473-0.421-0.837-0.26-1.916l0.017-0.121c0.109-0.739 0.293-1.176 2.78-1.571 1.264-0.2 1.596 0.304 2.056 1.004l0.155 0.229c0.437 0.64 0.761 0.787 1.251 1.008 0.22 0.1 0.493 0.227 0.86 0.433 0.869 0.497 0.869 1.059 0.869 2.288v0.14c0 0.521-0.051 0.98-0.131 1.379 1.449-1.806 2.325-4.125 2.325-6.649 0-4.373-2.631-8.132-6.396-9.779l-0.069-0.027c-0.737 0.497-1.749 1.203-2.103 1.687-0.18 0.247-0.436 1.509-1.267 1.613-0.216 0.027-0.508 0.008-0.817-0.012-0.829-0.053-1.963-0.127-2.325 0.859-0.231 0.624-0.271 2.32 0.475 3.2 0.12 0.14 0.143 0.4 0.061 0.692-0.107 0.383-0.321 0.616-0.389 0.664-0.128-0.075-0.384-0.372-0.559-0.573-0.417-0.487-0.94-1.093-1.615-1.28-0.245-0.068-0.515-0.124-0.777-0.18-0.732-0.153-1.56-0.328-1.753-0.739-0.141-0.301-0.14-0.716-0.14-1.153 0-0.556 0-1.184-0.272-1.793-0.099-0.225-0.237-0.416-0.407-0.572l-0.001-0.001zM16 29.333c-7.364 0-13.333-5.969-13.333-13.333s5.969-13.333 13.333-13.333 13.333 5.969 13.333 13.333-5.969 13.333-13.333 13.333z"></path>
</symbol>
<symbol id="icon-calendar" viewBox="0 0 32 32">
<path d="M22.667 4h5.333c0.736 0 1.333 0.597 1.333 1.333v0 21.333c0 0.736-0.597 1.333-1.333 1.333v0h-24c-0.736 0-1.333-0.597-1.333-1.333v0-21.333c0-0.736 0.597-1.333 1.333-1.333v0h5.333v-2.667h2.667v2.667h8v-2.667h2.667v2.667zM5.333 12v13.333h21.333v-13.333h-21.333zM8 17.333h6.667v5.333h-6.667v-5.333z"></path>
</symbol>
<symbol id="icon-excel" viewBox="0 0 32 32">
<path d="M17.6 16l3.733 5.333h-3.2l-2.133-3.048-2.133 3.048h-3.2l3.733-5.333-3.733-5.333h3.2l2.133 3.048 2.133-3.048h1.867v-5.333h-13.333v21.333h18.667v-16h-4l-3.733 5.333zM4 3.989c0-0.731 0.596-1.323 1.332-1.323h16.001l6.667 6.667v18.657c0 0.003 0 0.006 0 0.009 0 0.733-0.592 1.328-1.324 1.333h-21.352c-0.729-0.005-1.318-0.594-1.324-1.322v-24.022z"></path>
</symbol>
<symbol id="icon-box" viewBox="0 0 32 32">
<path d="M4.071 21.864c0.451 0 0.817-0.366 0.817-0.817v0-2.483c0-0.451-0.366-0.817-0.817-0.817s-0.817 0.366-0.817 0.817v0 2.483c0 0.451 0.366 0.817 0.817 0.817v0z"></path>
<path d="M30.941 9.181c0-0.001 0-0.002 0-0.004 0-0.334-0.201-0.622-0.488-0.748l-0.005-0.002-9.56-4.116c-0.095-0.042-0.206-0.067-0.323-0.067-0.114 0-0.223 0.023-0.321 0.066l0.005-0.002-18.788 7.874c-0.015 0.007-0.030 0.014-0.045 0.021l-0.017 0.009-0.032 0.018-0.020 0.012-0.014 0.008-0.014 0.010-0.019 0.014-0.027 0.021-0.017 0.013c-0.011 0.009-0.021 0.019-0.032 0.028l-0.010 0.009c-0.013 0.012-0.026 0.026-0.039 0.039l-0.009 0.011c-0.009 0.011-0.018 0.021-0.026 0.031l-0.012 0.016-0.021 0.029-0.012 0.018-0.018 0.030-0.010 0.018c-0.006 0.011-0.011 0.021-0.017 0.032s-0.006 0.011-0.009 0.017c-0.007 0.014-0.013 0.028-0.018 0.043l-0.004 0.008c-0.007 0.017-0.012 0.034-0.018 0.051-0.002 0.006-0.004 0.012-0.005 0.019s-0.007 0.023-0.009 0.035-0.003 0.014-0.005 0.022-0.005 0.022-0.006 0.033-0.003 0.015-0.004 0.022-0.003 0.023-0.004 0.035 0 0.014 0 0.021c0 0.014 0 0.027-0.002 0.041 0 0.004 0 0.009 0 0.013v10.821c0 0 0 0 0 0 0 0.334 0.2 0.62 0.487 0.747l0.005 0.002 9.581 4.154c0.019 0.008 0.039 0.015 0.058 0.021l0.016 0.005c0.024 0.007 0.047 0.014 0.072 0.019l0.016 0.003c0.019 0.004 0.039 0.007 0.059 0.009h0.021c0.024 0.002 0.049 0.004 0.074 0.004v0c0.024 0 0.049 0 0.073-0.004h0.021c0.020-0.002 0.039-0.005 0.058-0.009l0.016-0.003c0.024-0.005 0.048-0.011 0.071-0.018l0.016-0.005c0.019-0.006 0.039-0.013 0.058-0.021l0.011-0.004 18.77-8.102c0.293-0.129 0.493-0.416 0.493-0.75v0-10.571c0-0.009 0-0.017 0-0.025s0-0.013 0-0.021zM5.63 24.529l-3.034-1.316v-9.034l3.034 1.316zM10.532 26.655l-3.268-1.417v-9.033l3.268 1.417zM11.353 16.197l-7.492-3.249 16.698-6.998 7.479 3.221zM29.308 19.261l-17.142 7.397v-8.973l17.142-7.227z"></path>
<path d="M8.481 23.42c0.451 0 0.817-0.366 0.817-0.817v0-2.481c0-0.451-0.366-0.817-0.817-0.817s-0.817 0.366-0.817 0.817v0 2.481c0 0.451 0.366 0.817 0.817 0.817v0z"></path>
<path d="M13.785 25.242c0.451 0 0.817-0.366 0.817-0.817v0-5.862c0-0.451-0.366-0.817-0.817-0.817s-0.817 0.366-0.817 0.817v0 5.862c0 0.451 0.366 0.817 0.817 0.817v0z"></path>
<path d="M16.11 24.237c0.451 0 0.817-0.366 0.817-0.817v0-5.861c0-0.451-0.366-0.817-0.817-0.817s-0.817 0.366-0.817 0.817v0 5.861c0 0.451 0.366 0.817 0.817 0.817v0z"></path>
<path d="M18.434 23.233c0.451 0 0.817-0.366 0.817-0.817v0-5.862c0-0.451-0.366-0.817-0.817-0.817s-0.817 0.366-0.817 0.817v0 5.862c0 0.451 0.366 0.817 0.817 0.817v0z"></path>
<path d="M20.758 22.228c0.451 0 0.817-0.366 0.817-0.817v0-5.862c0-0.451-0.366-0.817-0.817-0.817s-0.817 0.366-0.817 0.817v0 5.862c0 0.451 0.366 0.817 0.817 0.817v0z"></path>
<path d="M23.082 21.223c0.451 0 0.817-0.366 0.817-0.817v0-5.862c0-0.451-0.366-0.817-0.817-0.817s-0.817 0.366-0.817 0.817v0 5.862c0 0.451 0.366 0.817 0.817 0.817v0z"></path>
<path d="M25.406 20.218c0.451 0 0.817-0.366 0.817-0.817v0-5.863c0-0.451-0.366-0.817-0.817-0.817s-0.817 0.366-0.817 0.817v0 5.863c0 0.451 0.366 0.817 0.817 0.817v0z"></path>
<path d="M27.731 19.214c0.451 0 0.817-0.366 0.817-0.817v0-5.862c0-0.451-0.366-0.817-0.817-0.817s-0.817 0.366-0.817 0.817v0 5.862c0 0.451 0.366 0.817 0.817 0.817v0z"></path>
</symbol>
<symbol id="icon-bl" viewBox="0 0 32 32">
<path d="M14.144 13.609v-0.020c0-0.495-0.175-0.876-0.464-1.164-0.422-0.423-1.061-0.649-1.968-0.649h-3.699v7.214h3.72c1.721 0 2.73-0.752 2.73-1.988v-0.020c0-0.979-0.556-1.475-1.432-1.761 0.639-0.278 1.113-0.774 1.113-1.611zM9.961 13.382h1.299c0.598 0 0.904 0.226 0.904 0.619v0.020c0 0.423-0.34 0.629-0.948 0.629h-1.255zM12.467 16.723c0 0.422-0.35 0.659-0.958 0.659h-1.548v-1.329h1.523c0.67 0 0.979 0.257 0.979 0.649z"></path>
<path d="M20.872 17.237h-3.493v-5.461h-1.998v7.212h5.492v-1.752z"></path>
<path d="M20.042 21.099h-11.376c-0.552 0-0.999 0.447-0.999 0.999s0.447 0.999 0.999 0.999v0h11.376c0.552 0 0.999-0.447 0.999-0.999s-0.447-0.999-0.999-0.999v0z"></path>
<path d="M7.668 25.808c0 0.552 0.447 0.999 0.999 0.999v0h14.534c0.552 0 0.999-0.447 0.999-0.999s-0.447-0.999-0.999-0.999v0h-14.534c-0.552 0-0.999 0.447-0.999 0.999v0z"></path>
<path d="M26.123 1.412h-13.35c-0 0-0 0-0 0-0.27 0-0.514 0.107-0.694 0.281l0-0-6.9 6.662c-0.188 0.182-0.305 0.437-0.305 0.719v0 20.563c0 0.552 0.447 0.999 0.999 0.999v0h20.249c0.552 0 0.999-0.447 0.999-0.999v0-27.224c0-0.552-0.447-0.999-0.999-0.999v0zM11.772 4.767v3.356l-3.438-0.034zM25.124 28.636h-18.249v-18.564h0.017l5.878 0.058c0.552 0 0.999-0.447 0.999-0.999v0l0.003-5.722h11.351z"></path>
</symbol>
<symbol id="icon-map" viewBox="0 0 32 32">
<path d="M2.667 6.667l9.333-4 8 4 8.404-3.601c0.077-0.034 0.168-0.054 0.263-0.054 0.368 0 0.667 0.298 0.667 0.667 0 0 0 0 0 0.001v-0 21.655l-9.333 4-8-4-8.404 3.601c-0.077 0.034-0.168 0.054-0.263 0.054-0.368 0-0.667-0.298-0.667-0.667 0-0 0-0 0-0.001v0-21.655zM21.333 25.86l5.333-2.285v-16.864l-5.333 2.285v16.864zM18.667 25.685v-16.704l-5.333-2.667v16.704l5.333 2.667zM10.667 23.004v-16.864l-5.333 2.285v16.864l5.333-2.285z"></path>
</symbol>
<symbol id="icon-download" viewBox="0 0 32 32">
<path d="M1.333 19.333c0-0.001 0-0.003 0-0.005 0-3.088 1.616-5.799 4.050-7.333l0.036-0.021c0.696-5.279 5.168-9.311 10.581-9.311s9.885 4.032 10.575 9.257l0.006 0.054c2.471 1.555 4.088 4.268 4.088 7.359 0 4.553-3.511 8.286-7.973 8.639l-0.030 0.002-13.333 0.025c-4.475-0.365-8-4.104-8-8.667zM22.464 25.316c3.11-0.246 5.54-2.831 5.54-5.982 0-2.141-1.121-4.020-2.808-5.082l-0.025-0.015-1.076-0.671-0.16-1.256c-0.526-3.956-3.878-6.976-7.935-6.976s-7.409 3.020-7.931 6.935l-0.004 0.041-0.16 1.256-1.073 0.671c-1.712 1.076-2.834 2.955-2.834 5.096 0 3.151 2.43 5.735 5.518 5.981l0.021 0.001 0.231 0.017h12.467l0.231-0.017zM17.333 16h4l-5.333 6.667-5.333-6.667h4v-5.333h2.667v5.333z"></path>
</symbol>
<symbol id="icon-format" viewBox="0 0 32 32">
<path d="M10.667 6.667h4v12h-4v4h-2.667v-4h-4v-12h4v-4h2.667v4zM6.667 9.333v6.667h5.333v-6.667h-5.333zM24 13.333h4v12h-4v4h-2.667v-4h-4v-12h4v-4h2.667v4zM20 16v6.667h5.333v-6.667h-5.333z"></path>
</symbol>
<symbol id="icon-stack" viewBox="0 0 32 32">
<path d="M26.777 20.267l1.603 0.961c0.196 0.119 0.324 0.33 0.324 0.572s-0.129 0.453-0.321 0.57l-0.003 0.002-11.693 7.016c-0.196 0.12-0.433 0.19-0.687 0.19s-0.491-0.071-0.693-0.194l0.006 0.003-11.693-7.016c-0.196-0.119-0.324-0.33-0.324-0.572s0.129-0.453 0.321-0.57l0.003-0.002 1.603-0.961 10.777 6.467 10.777-6.467zM26.777 14l1.603 0.961c0.196 0.119 0.324 0.33 0.324 0.572s-0.129 0.453-0.321 0.57l-0.003 0.002-12.38 7.428-12.38-7.428c-0.196-0.119-0.324-0.33-0.324-0.572s0.129-0.453 0.321-0.57l0.003-0.002 1.603-0.961 10.777 6.467 10.777-6.467zM16.685 1.745l11.695 7.016c0.196 0.119 0.324 0.33 0.324 0.572s-0.129 0.453-0.321 0.57l-0.003 0.002-12.38 7.428-12.38-7.428c-0.196-0.119-0.324-0.33-0.324-0.572s0.129-0.453 0.321-0.57l0.003-0.002 11.693-7.016c0.196-0.12 0.433-0.19 0.687-0.19s0.491 0.071 0.693 0.194l-0.006-0.003zM16 4.443l-8.151 4.891 8.151 4.891 8.151-4.891-8.151-4.891z"></path>
</symbol>
<symbol id="icon-error-round" viewBox="0 0 32 32">
<path d="M16 29.333c-7.364 0-13.333-5.969-13.333-13.333s5.969-13.333 13.333-13.333 13.333 5.969 13.333 13.333-5.969 13.333-13.333 13.333zM16 26.667c5.891 0 10.667-4.776 10.667-10.667s-4.776-10.667-10.667-10.667v0c-5.891 0-10.667 4.776-10.667 10.667s4.776 10.667 10.667 10.667v0zM14.667 20h2.667v2.667h-2.667v-2.667zM14.667 9.333h2.667v8h-2.667v-8z"></path>
</symbol>
</defs>
</svg>
